<svg width="48" height="48" fill="none" xmlns="http://www.w3.org/2000/svg"><path d="M26.922 33.061c8.582-7.715 14.426-12.74 14.608-17.943 0-3.588-2.739-6.28-6.39-6.28-2.923 0-5.662 1.795-6.575 4.307h-3.47C24 10.633 21.262 8.839 18.523 8.839c-3.652 0-6.392 2.69-6.392 6.28 0 5.203 5.661 10.227 14.426 17.942l.183.18.183-.18ZM34.956 5.25C40.617 5.25 45 9.556 45 15.118c0 6.64-6.209 12.201-18.26 22.967C14.686 27.499 8.477 21.937 8.477 15.118c0-5.562 4.383-9.868 10.044-9.868 3.104 0 6.208 1.435 8.217 3.768 2.009-2.333 5.113-3.768 8.217-3.768Z" fill="#4939FF"/><path d="M21.26 42.75 24 40.417C11.948 29.831 4.826 23.551 4.826 15.118v-1.076C3.73 15.657 3 17.63 3 19.784c0 6.818 6.209 12.38 18.26 22.966Z" fill="#B6B0FF"/></svg>