<svg width="48" height="48" fill="none" xmlns="http://www.w3.org/2000/svg"><g clip-path="url(#a)"><path d="M3.428 5.714A3.42 3.42 0 0 0 0 9.142v13.716a3.42 3.42 0 0 0 3.428 3.428 3.42 3.42 0 0 0 3.43-3.428V9.14a3.42 3.42 0 0 0-3.43-3.428v.002Zm13.714 0a3.42 3.42 0 0 0-3.428 3.428v2.286c0 1.9 1.53 3.43 3.428 3.43a3.42 3.42 0 0 0 3.43-3.43V9.142a3.418 3.418 0 0 0-3.432-3.428h.002Zm13.716 0a3.42 3.42 0 0 0-3.43 3.428V38.86c0 1.9 1.53 3.428 3.43 3.428a3.421 3.421 0 0 0 3.428-3.428V9.14a3.42 3.42 0 0 0-3.428-3.428v.002Zm-13.716 16a3.42 3.42 0 0 0-3.428 3.428v13.716a3.42 3.42 0 0 0 3.428 3.428 3.42 3.42 0 0 0 3.43-3.428V25.14a3.418 3.418 0 0 0-3.43-3.428v.002ZM3.428 33.142A3.418 3.418 0 0 0 0 36.572v2.286a3.42 3.42 0 0 0 3.428 3.428 3.42 3.42 0 0 0 3.43-3.428v-2.286a3.42 3.42 0 0 0-3.43-3.43Zm41.144 0a3.42 3.42 0 0 0-3.43 3.43v2.286c0 1.9 1.53 3.428 3.43 3.428A3.421 3.421 0 0 0 48 38.858v-2.286a3.42 3.42 0 0 0-3.428-3.43Z" fill="#4939FF"/><path d="M43.259 5.972a3.42 3.42 0 0 1 1.313-.258v-.002A3.42 3.42 0 0 1 48 9.14v13.718a3.42 3.42 0 0 1-3.428 3.428c-1.9 0-3.43-1.528-3.43-3.428V9.142a3.421 3.421 0 0 1 2.117-3.17Z" fill="url(#b)"/></g><defs><linearGradient id="b" x1="47.853" y1="25.811" x2="38.805" y2="21.471" gradientUnits="userSpaceOnUse"><stop stop-color="#77F"/><stop offset="1" stop-color="#7878FF"/></linearGradient><clipPath id="a"><path fill="#fff" d="M0 0h48v48H0z"/></clipPath></defs></svg>