<svg viewBox="0 0 678.61 248.14" fill="currentColor" color="currentColor" xmlns="http://www.w3.org/2000/svg"><path d="M120.55 101.68a6.44 6.44 0 0 1-4.84-2.12c-1.34-1.42-2-3.55-2-6.38V37.51q0-17.46-13.21-27.48T61.8.03h-4.95a78.94 78.94 0 0 0-27.6 4.48q-12 4.49-18.76 12.5a27.55 27.55 0 0 0-6.72 18.15 28.84 28.84 0 0 0 .47 4.24H37.5v-1.88a10.52 10.52 0 0 1 2.48-6.14 19 19 0 0 1 7.2-5.54A26.24 26.24 0 0 1 58.5 23.6q11.33 0 16.4 4.95t5.07 13v8q-26.9 0-43.88 3.07T9.55 64.53Q-.01 73.38 0 90.13q0 20.52 11.56 27.84t29.48 7.31q24.07 0 40.58-20.29 1.19 9.68 8 15t19.82 5.31q12 0 20.76-4.95V99.08c-1.1.48-2.6 1-4.48 1.66a16.52 16.52 0 0 1-5.17.94zM79.97 75.25a24 24 0 0 1-4.13 13.69 28.62 28.62 0 0 1-10.23 9.44 25.7 25.7 0 0 1-12.27 3.3q-9 0-13.33-3.19t-4.36-11q0-9.9 11-14.27t33.38-4.36zm146.15-22.76a211.15 211.15 0 0 0-25.6-5.54q-13.91-2.13-20.41-4.49t-6.5-8.25q0-5 6-7.79t16-2.83q21.71 0 21.7 14.15h30.2c0-.15.07-.74.23-1.77a22.19 22.19 0 0 0 .24-3.42 24.23 24.23 0 0 0-6.84-16.86 45.27 45.27 0 0 0-18.09-11.53A68.11 68.11 0 0 0 199.34.03h-4.73a75.5 75.5 0 0 0-26.07 4.36 44.14 44.14 0 0 0-19.11 13q-7.2 8.61-7.19 20.88 0 13.44 7 21a37.65 37.65 0 0 0 16.63 10.62 192.7 192.7 0 0 0 24.74 5.6q14.38 2.13 21.24 4.95t6.84 9.44c0 4.1-2.48 7.08-7.43 9a47.14 47.14 0 0 1-16.87 2.83q-10.86 0-18.17-3.66a12.38 12.38 0 0 1-7.31-11.89v-1.7h-30.2l-.24 4.71a29.69 29.69 0 0 0 6.49 18.88q6.5 8.25 18 12.74a72.17 72.17 0 0 0 26.19 4.48h7.78q23.36 0 38.46-9.55t15.09-31q0-13.92-7.31-21.58a38.89 38.89 0 0 0-17.05-10.65zm42.34 86.67v1.64l.47-1.48zm-8.25-136.8 28.65 74.38 16.19-50.88-8.28-23.5h-36.56z"/><path d="M262.81 223.61a36.75 36.75 0 0 1-8.49-1.07 47 47 0 0 1-7.31-2.24v24.3q7.77 3.54 20.28 3.54 17.93 0 30.67-13.56t21.47-37.16l42.94-113.95h-34l-25 75.73h-1.42l-21.2-60.22-16.31 51.25 19.82 51.44q-6.35 21.93-21.45 21.94zm214.8-132.59q-11.91-9.86-30.31-9.86-23.6 0-38.46 20.05l-3.78-17.69h-25.71v120.5h34.44v-74.07a23.63 23.63 0 0 1 6.61-16.87 21 21 0 0 1 15.81-7 17.28 17.28 0 0 1 13.56 6q5.31 6 5.31 15.21v76.67h34.44V119.8q0-18.87-11.91-28.78zm74.73 22.06a19.66 19.66 0 0 1 16.75-8.38q10.62 0 16 7.32t5.52 19.58h34.2q0-15.57-7.19-27a47.52 47.52 0 0 0-19.16-17.44 56.54 56.54 0 0 0-25.85-6h-3.78q-16.75 0-29.72 7.08a50.94 50.94 0 0 0-20.41 20.41q-7.43 13.33-7.43 31.73v6.78q0 27.84 15.57 43.52t42 15.69h3.77a61.34 61.34 0 0 0 26-5.42 43.92 43.92 0 0 0 19-16.75q7.18-11.32 7.19-28.07h-32.59q0 13.2-6.25 19.93t-17.11 6.72a19.81 19.81 0 0 1-16.51-7.9q-6.13-7.9-6.14-19.7v-21.02q0-12.71 6.14-21.08zm91.83 56.27h34.44v34.68h-34.44z"/></svg>